# xmcd
#
# Track frame offsets: 
#        150
#        14437
#        28752
#        41379
#        55388
#        69929
#        85034
#        97978
#        112998
#        125271
#        138395
#        153470
#        167538
#        179600
#        194088
#        206630
#        219274
#        231879
#        244935
#        257347
#        270240
#        283931
#        297924
#
# Disc length: 4138 seconds
#
# Revision: 1
# Processed by: cddbd v1.5.2PL0 Copyright (c) Steve Scherf et al.
# Submitted via: ExactAudioCopy v0.95b4
#
DISCID=47102817
DTITLE=Various Artist - The Great Race Record Labels Volume 3 - Okeh
DYEAR=2000
DGENRE=Blues
TTITLE0=Texas Alexander/I AmCalling Blues
TTITLE1=Bo Carter/Sorry Feeling Blues
TTITLE2=Jack Dupree/Gamblin' Man Blues
TTITLE3=Lonnie Johnson/Life Saver Blues
TTITLE4=Little Hat Jones/Kentucky Blues
TTITLE5=Charlie McCoy/You Gonna Need Me
TTITLE6=Brownie McGhee/Born for Bad Luck
TTITLE7=Mississippi sheiks/She's a Bad Girl
TTITLE8=Buddy Moss/WStruggle Buggie
TTITLE9=Hambone Willie Newbern/Shelby County Workhouse Blues
TTITLE10=Mamie Smith/Crzay Blues
TTITLE11=Freddie Spruell/WayBack Down Home
TTITLE12=Sippie Wallace/Caldonia Blues
TTITLE13=Sylvester Weaver/Chitlin' Rag Blues
TTITLE14=Doc Clayton/Roaming Gambler
TTITLE15=Memphis Slim/The Jive Blues
TTITLE16=FrankEdwards/Sweet Man Blues
TTITLE17=Alfried Fields/Money Green
TTITLE18=Blind Boy Fuller/Lost Lover Blues
TTITLE19=Tony Hollins/Married Woman Blues
TTITLE20=Tom Dickson/Worry Blues
TTITLE21=Memphis Jug Band/Insane Crazy Blues
TTITLE22=Memphis Minnie/Me and My Chauffeur Blues
EXTD=
EXTT0=
EXTT1=
EXTT2=
EXTT3=
EXTT4=
EXTT5=
EXTT6=
EXTT7=
EXTT8=
EXTT9=
EXTT10=
EXTT11=
EXTT12=
EXTT13=
EXTT14=
EXTT15=
EXTT16=
EXTT17=
EXTT18=
EXTT19=
EXTT20=
EXTT21=
EXTT22=
PLAYORDER=
